<?xml version="1.0" encoding="UTF-8"?>
<svg xmlns="http://www.w3.org/2000/svg"
width="670mm" height="205mm"
viewBox="0 0 670 205">
<path d="M50.0 50.0 l56.0,0  l0,4.0  l56.0,0  l0,-4.0  l56.0,0  l0,4.0  l56.0,0  l0,-4.0  l56.0,0  l0,19.0  l-4.0,0  l0,19.0  l4.0,0  l0,19.0  l-4.0,0  l0,19.0  l4.0,0  l0,19.0  l-56.0,0  l0,-4.0  l-56.0,0  l0,4.0  l-56.0,0  l0,-4.0  l-56.0,0  l0,4.0  l-56.0,0  l0,-19.0  l4.0,0  l0,-19.0  l-4.0,0  l0,-19.0  l4.0,0  l0,-19.0  l-4.0,0  l0,-19.0 Z" fill="none" stroke-width="0.2" stroke="black" />
<path d="M54.0 10.0 l272.0,0  l0,5.2  l4.0,0  l0,5.2  l-4.0,0  l0,5.2  l4.0,0  l0,5.2  l-4.0,0  l0,5.2  l-52.0,0  l0,4.0  l-56.0,0  l0,-4.0  l-56.0,0  l0,4.0  l-56.0,0  l0,-4.0  l-52.0,0  l0,-5.2  l-4.0,0  l0,-5.2  l4.0,0  l0,-5.2  l-4.0,0  l0,-5.2  l4.0,0  l0,-5.2 Z" fill="none" stroke-width="0.2" stroke="black" />
<path d="M54.0 159.0 l52.0,0  l0,-4.0  l56.0,0  l0,4.0  l56.0,0  l0,-4.0  l56.0,0  l0,4.0  l52.0,0  l0,5.2  l4.0,0  l0,5.2  l-4.0,0  l0,5.2  l4.0,0  l0,5.2  l-4.0,0  l0,1.2000000000000002  l-272.0,0  l0,-1.2000000000000002  l-4.0,0  l0,-5.2  l4.0,0  l0,-5.2  l-4.0,0  l0,-5.2  l4.0,0  l0,-5.2 Z" fill="none" stroke-width="0.2" stroke="black" />
<path d="M10.0 50.0 l5.2,0  l0,4.0  l5.2,0  l0,-4.0  l5.2,0  l0,4.0  l5.2,0  l0,-4.0  l5.2,0  l0,19.0  l4.0,0  l0,19.0  l-4.0,0  l0,19.0  l4.0,0  l0,19.0  l-4.0,0  l0,19.0  l-5.2,0  l0,-4.0  l-5.2,0  l0,4.0  l-5.2,0  l0,-4.0  l-5.2,0  l0,4.0  l-5.2,0  l0,-82.0  a4.0,4.0 0 0 1 -4.0,-4.0  l0,-5.0  a4.0,4.0 0 0 1 4.0,-4.0 Z" fill="none" stroke-width="0.2" stroke="black" />
<path d="M10.5 54.0 l3.0,0  a1.0,1.0 0 0 1 1.0,1.0  l0,3.0  a1.0,1.0 0 0 1 -1.0,1.0  l-3.0,0  a1.0,1.0 0 0 1 -1.0,-1.0  l0,-3.0  a1.0,1.0 0 0 1 1.0,-1.0 Z" fill="none" stroke-width="0.2" stroke="black" />
<path d="M344.0 50.0 l5.2,0  l0,4.0  l5.2,0  l0,-4.0  l5.2,0  l0,4.0  l5.2,0  l0,-4.0  l5.2,0  a4.0,4.0 0 0 1 4.0,4.0  l0,5.0  a4.0,4.0 0 0 1 -4.0,4.0  l0,82.0  l-5.2,0  l0,-4.0  l-5.2,0  l0,4.0  l-5.2,0  l0,-4.0  l-5.2,0  l0,4.0  l-5.2,0  l0,-19.0  l-4.0,0  l0,-19.0  l4.0,0  l0,-19.0  l-4.0,0  l0,-19.0  l4.0,0  l0,-19.0 Z" fill="none" stroke-width="0.2" stroke="black" />
<path d="M366.5 54.0 l3.0,0  a1.0,1.0 0 0 1 1.0,1.0  l0,3.0  a1.0,1.0 0 0 1 -1.0,1.0  l-3.0,0  a1.0,1.0 0 0 1 -1.0,-1.0  l0,-3.0  a1.0,1.0 0 0 1 1.0,-1.0 Z" fill="none" stroke-width="0.2" stroke="black" />
<path d="M384.0 50.0 l280.0,0  l0,4.0  l-5.0,0  l0,86.0  l-270.0,0  l0,-86.0  l-5.0,0  l0,-4.0 Z" fill="none" stroke-width="0.2" stroke="black" />
</svg>
