<?xml version="1.0" encoding="UTF-8"?>
<svg xmlns="http://www.w3.org/2000/svg"
width="670mm" height="205mm"
viewBox="0 0 670 205">
<path d="M50.0 50.0 h56.0 v4.0 h56.0 v-4.0 h56.0 v4.0 h56.0 v-4.0 h56.0 v19.0 h-4.0 v19.0 h4.0 v19.0 h-4.0 v19.0 h4.0 v19.0 h-56.0 v-4.0 h-56.0 v4.0 h-56.0 v-4.0 h-56.0 v4.0 h-56.0 v-19.0 h4.0 v-19.0 h-4.0 v-19.0 h4.0 v-19.0 h-4.0 v-19.0 Z" fill="none" stroke-width="0.2" stroke="black" />
<path d="M54.0 10.0 h272.0 v5.2 h4.0 v5.2 h-4.0 v5.2 h4.0 v5.2 h-4.0 v5.2 h-52.0 v4.0 h-56.0 v-4.0 h-56.0 v4.0 h-56.0 v-4.0 h-52.0 v-5.2 h-4.0 v-5.2 h4.0 v-5.2 h-4.0 v-5.2 h4.0 v-5.2 Z" fill="none" stroke-width="0.2" stroke="black" />
<path d="M54.0 159.0 h52.0 v-4.0 h56.0 v4.0 h56.0 v-4.0 h56.0 v4.0 h52.0 v5.2 h4.0 v5.2 h-4.0 v5.2 h4.0 v5.2 h-4.0 v5.2 h-272.0 v-5.2 h-4.0 v-5.2 h4.0 v-5.2 h-4.0 v-5.2 h4.0 v-5.2 Z" fill="none" stroke-width="0.2" stroke="black" />
<path d="M10.0 50.0 h5.2 v4.0 h5.2 v-4.0 h5.2 v4.0 h5.2 v-4.0 h5.2 v19.0 h4.0 v19.0 h-4.0 v19.0 h4.0 v19.0 h-4.0 v19.0 h-5.2 v-4.0 h-5.2 v4.0 h-5.2 v-4.0 h-5.2 v4.0 h-5.2 v-95.0 Z" fill="none" stroke-width="0.2" stroke="black" />
<path d="M344.0 50.0 h5.2 v4.0 h5.2 v-4.0 h5.2 v4.0 h5.2 v-4.0 h5.2 v95.0 h-5.2 v-4.0 h-5.2 v4.0 h-5.2 v-4.0 h-5.2 v4.0 h-5.2 v-19.0 h-4.0 v-19.0 h4.0 v-19.0 h-4.0 v-19.0 h4.0 v-19.0 Z" fill="none" stroke-width="0.2" stroke="black" />
</svg>
